<?xml version="1.0" standalone="no"?>
<!DOCTYPE svg PUBLIC "-//W3C//DTD SVG 20010904//EN"
 "http://www.w3.org/TR/2001/REC-SVG-20010904/DTD/svg10.dtd">
<svg version="1.0" xmlns="http://www.w3.org/2000/svg"
 width="32.000000pt" height="32.000000pt" viewBox="0 0 32.000000 32.000000"
 preserveAspectRatio="xMidYMid meet">

<g transform="translate(0.000000,32.000000) scale(0.100000,-0.100000)"
fill="#000000" stroke="none">
<path d="M10 95 c0 -54 1 -55 28 -55 36 0 52 17 52 55 0 38 -16 55 -52 55 -27
0 -28 -1 -28 -55z m55 0 c0 -20 -6 -31 -17 -33 -15 -3 -18 4 -18 33 0 29 3 36
18 33 11 -2 17 -13 17 -33z"/>
<path d="M113 95 c0 -33 2 -45 4 -27 2 18 2 45 0 60 -2 15 -4 0 -4 -33z"/>
<path d="M166 119 c-24 -58 -28 -79 -17 -79 6 0 11 5 11 10 0 6 9 10 19 10 11
0 23 -4 26 -10 17 -27 22 -4 8 38 -22 65 -30 71 -47 31z m24 -24 c0 -8 -4 -15
-10 -15 -5 0 -7 7 -4 15 4 8 8 15 10 15 2 0 4 -7 4 -15z"/>
<path d="M241 136 c-17 -20 -10 -77 12 -90 22 -14 51 3 55 33 3 16 -2 21 -17
21 -12 0 -21 -4 -21 -10 0 -5 5 -10 12 -10 9 0 9 -3 0 -12 -17 -17 -35 3 -30
33 2 20 8 23 32 21 26 -3 28 -1 17 12 -17 20 -45 21 -60 2z"/>
</g>
</svg>
